<?xml version="1.0" standalone="no"?>
<!DOCTYPE svg PUBLIC "-//W3C//DTD SVG 20010904//EN"
 "http://www.w3.org/TR/2001/REC-SVG-20010904/DTD/svg10.dtd">
<svg version="1.0" xmlns="http://www.w3.org/2000/svg"
 width="700.000000pt" height="700.000000pt" viewBox="0 0 700.000000 700.000000"
 preserveAspectRatio="xMidYMid meet">
<metadata>
Created by potrace 1.11, written by Peter Selinger 2001-2013
</metadata>
<g transform="translate(0.000000,700.000000) scale(0.100000,-0.100000)"
fill="#000000" stroke="none">
<path d="M5250 3500 l0 -1820 350 0 350 0 0 1820 0 1820 -350 0 -350 0 0
-1820z"/>
<path d="M2450 3220 l0 -1540 350 0 350 0 0 1540 0 1540 -350 0 -350 0 0
-1540z"/>
<path d="M3850 2940 l0 -1260 350 0 350 0 0 1260 0 1260 -350 0 -350 0 0
-1260z"/>
<path d="M1050 2660 l0 -980 350 0 350 0 0 980 0 980 -350 0 -350 0 0 -980z"/>
</g>
</svg>
